<?xml version="1.0" encoding="UTF-8" standalone="no"?> <svg xmlns="http://www.w3.org/2000/svg" xmlns:xlink="http://www.w3.org/1999/xlink" width="512" height="512" viewBox="0 0 512 512">  <defs>    <linearGradient id="a" data-name="New Gradient Swatch 1" x1="16.454" y1="478.454" x2="501.049" y2="-6.14" gradientUnits="userSpaceOnUse">      <stop offset="0" stop-color="#003f8a"/>      <stop offset="0.518" stop-color="#00d7df"/>      <stop offset="1" stop-color="#006df0"/>    </linearGradient>    <linearGradient id="b" x1="164.01" y1="626.01" x2="648.604" y2="141.415" xlink:href="#a"/>    <linearGradient id="d" x1="115.927" y1="577.927" x2="600.521" y2="93.332" xlink:href="#a"/>    <linearGradient id="e" x1="73.292" y1="535.292" x2="557.887" y2="50.698" xlink:href="#a"/>    <linearGradient id="f" x1="73.292" y1="535.292" x2="557.887" y2="50.697" xlink:href="#a"/>    <linearGradient id="g" x1="-111" y1="351" x2="373.595" y2="-133.595" xlink:href="#a"/>    <linearGradient id="h" x1="-87" y1="375" x2="397.595" y2="-109.595" xlink:href="#a"/>    <linearGradient id="i" x1="-141" y1="321" x2="343.595" y2="-163.595" xlink:href="#a"/>    <linearGradient id="j" x1="-95" y1="367" x2="389.595" y2="-117.595" xlink:href="#a"/>    <linearGradient id="k" x1="-135" y1="327" x2="349.595" y2="-157.595" xlink:href="#a"/>    <linearGradient id="l" x1="-63" y1="399" x2="421.595" y2="-85.595" xlink:href="#a"/>    <linearGradient id="m" x1="-47" y1="415" x2="437.595" y2="-69.595" xlink:href="#a"/>    <linearGradient id="n" x1="-37" y1="425" x2="447.595" y2="-59.595" xlink:href="#a"/>  </defs>    <g>    <path d="M496.34,429.45,360.86,293.98l69.2-69.2a56.958,56.958,0,0,0,66.5-56.32,56.733,56.733,0,0,0-5.17-23.71,8,8,0,0,0-12.93-2.31l-23.35,23.35-8.49-2.83-2.83-8.48,23.85-23.85a8,8,0,0,0-2.01-12.77,57.019,57.019,0,0,0-81.79,62.63L298.63,265.7,264,231.07V192a23.9,23.9,0,0,0-6.13-16A23.9,23.9,0,0,0,264,160V112a23.9,23.9,0,0,0-6.13-16A23.9,23.9,0,0,0,264,80V32A24.032,24.032,0,0,0,240,8H32A24.032,24.032,0,0,0,8,32V80a23.9,23.9,0,0,0,6.13,16A23.9,23.9,0,0,0,8,112v48a23.9,23.9,0,0,0,6.13,16A23.9,23.9,0,0,0,8,192v48a24.032,24.032,0,0,0,24,24H229.07l35.63,35.63L128.47,435.86a32,32,0,0,0,45.25,45.26L292.98,361.86,428.46,497.34a24.046,24.046,0,0,0,33.94,0l33.94-33.95A24.058,24.058,0,0,0,496.34,429.45ZM24,32a8.011,8.011,0,0,1,8-8H240a8.011,8.011,0,0,1,8,8V80a8.011,8.011,0,0,1-8,8H32a8.011,8.011,0,0,1-8-8Zm0,80a8.011,8.011,0,0,1,8-8H240a8.011,8.011,0,0,1,8,8v48a8.011,8.011,0,0,1-8,8H203.18a8,8,0,0,0-1.75-10.74l-50.91-39.59a8,8,0,0,0-10.57.65l-22.63,22.63a8,8,0,0,0-.65,10.57L129.48,168H32a8.011,8.011,0,0,1-8-8Zm224,80v23.07L216.93,184H240A8.011,8.011,0,0,1,248,192Zm-63.54-27.67-21.13,21.13-29.7-38.19,12.64-12.64ZM32,248a8.011,8.011,0,0,1-8-8V192a8.011,8.011,0,0,1,8-8H141.93l14.33,18.43a8,8,0,0,0,5.82,3.07c.17.01.33.02.5.02a8.043,8.043,0,0,0,5.66-2.34L213.07,248Zm206.04,2.35v-.01l-58.49-58.48,7.86-7.86h6.9l56.03,56.04h.01l36.97,36.97-11.31,11.31Zm50.67,93.15a1.593,1.593,0,0,0-.13.13L162.41,469.81a16,16,0,1,1-22.63-22.63l258.6-258.6a8.028,8.028,0,0,0,2-8,40.98,40.98,0,0,1,46.97-52.29l-18.37,18.37a7.99,7.99,0,0,0-1.93,8.18l5.66,16.98a8.035,8.035,0,0,0,5.06,5.06l16.97,5.65a8.012,8.012,0,0,0,8.19-1.93l17.31-17.32a41,41,0,0,1-50.8,45.03,7.994,7.994,0,0,0-7.63,2.09l-79.17,79.18a1.92,1.92,0,0,0-.15.14ZM485.02,452.08l-33.93,33.94a8.015,8.015,0,0,1-11.32,0L304.29,350.55l45.26-45.26L485.02,440.76A8.015,8.015,0,0,1,485.02,452.08Z" fill="url(#a)"/>    <path d="M360.569,372.882A8,8,0,0,0,349.255,384.2l56.568,56.569a8,8,0,0,0,11.315-11.315Z" fill="url(#b)"/>    <path d="M388.854,355.911a8,8,0,0,0-11.315,11.315l45.255,45.254a8,8,0,0,0,11.314-11.314Z" fill="url(#b)"/>    <path d="M354.911,344.6a8,8,0,0,0,11.315-11.313l-5.657-5.657a8,8,0,1,0-11.314,11.312Z" fill="url(#d)"/>    <path d="M269.112,339.473a8,8,0,0,0-11.314,0l-79.2,79.195a8,8,0,0,0,11.314,11.314l79.2-79.2A8,8,0,0,0,269.112,339.473Z" fill="url(#e)"/>    <path d="M161.631,435.639l-5.657,5.657a8,8,0,0,0,11.314,11.314l5.657-5.657a8,8,0,1,0-11.314-11.314Z" fill="url(#f)"/>    <path d="M168,48h64a8,8,0,0,0,0-16H168a8,8,0,0,0,0,16Z" fill="url(#g)"/>    <path d="M232,56H216a8,8,0,0,0,0,16h16a8,8,0,0,0,0-16Z" fill="url(#h)"/>    <path d="M136,48h8a8,8,0,0,0,0-16h-8a8,8,0,0,0,0,16Z" fill="url(#i)"/>    <path d="M56,192a24,24,0,1,0,24,24A24.028,24.028,0,0,0,56,192Zm0,32a8,8,0,1,1,8-8A8.009,8.009,0,0,1,56,224Z" fill="url(#j)"/>    <path d="M56,112a24,24,0,1,0,24,24A24.028,24.028,0,0,0,56,112Zm0,32a8,8,0,1,1,8-8A8.009,8.009,0,0,1,56,144Z" fill="url(#k)"/>    <path d="M200,128h32a8,8,0,0,0,0-16H200a8,8,0,0,0,0,16Z" fill="url(#l)"/>    <path d="M232,136H216a8,8,0,0,0,0,16h16a8,8,0,0,0,0-16Z" fill="url(#m)"/>    <path d="M168,224H144a8,8,0,0,0,0,16h24a8,8,0,0,0,0-16Z" fill="url(#n)"/>  </g></svg>