<?xml version="1.0" encoding="UTF-8" standalone="no"?> <svg width="64" height="64" viewBox="0 0 64 64" fill="none" xmlns="http://www.w3.org/2000/svg">
<path d="M36.07 11.45H12.29L8.5 15.05V57.36H39.36V14.43L36.07 11.45ZM26.57 50.25L23.11 50.7099L20.68 48L23.11 39.11H24.82L27.75 46.75L26.57 50.25ZM35.89 26.07H12.54V16.18H35.89V26.07Z" fill="#78B9EB"/>
<path d="M35.63 15.05H12.47C12.2048 15.05 11.9504 15.1554 11.7629 15.3429C11.5753 15.5305 11.47 15.7848 11.47 16.05V25.91C11.47 26.1753 11.5753 26.4296 11.7629 26.6172C11.9504 26.8047 12.2048 26.91 12.47 26.91H35.63C35.8952 26.91 36.1495 26.8047 36.3371 26.6172C36.5246 26.4296 36.63 26.1753 36.63 25.91V16.05C36.63 15.7848 36.5246 15.5305 36.3371 15.3429C36.1495 15.1554 35.8952 15.05 35.63 15.05ZM34.63 24.91H13.47V17.05H34.63V24.91Z" fill="#006DF0"/>
<path d="M30.51 29.1399H17.6C17.3348 29.1399 17.0804 29.2453 16.8929 29.4328C16.7053 29.6203 16.6 29.8747 16.6 30.1399C16.6 30.4051 16.7053 30.6595 16.8929 30.847C17.0804 31.0345 17.3348 31.1399 17.6 31.1399H30.51C30.7752 31.1399 31.0295 31.0345 31.2171 30.847C31.4046 30.6595 31.51 30.4051 31.51 30.1399C31.51 29.8747 31.4046 29.6203 31.2171 29.4328C31.0295 29.2453 30.7752 29.1399 30.51 29.1399Z" fill="#006DF0"/>
<path d="M30.51 32.5601H17.6C17.3348 32.5601 17.0804 32.6654 16.8929 32.853C16.7053 33.0405 16.6 33.2948 16.6 33.5601C16.6 33.8253 16.7053 34.0796 16.8929 34.2672C17.0804 34.4547 17.3348 34.5601 17.6 34.5601H30.51C30.7752 34.5601 31.0295 34.4547 31.2171 34.2672C31.4046 34.0796 31.51 33.8253 31.51 33.5601C31.51 33.2948 31.4046 33.0405 31.2171 32.853C31.0295 32.6654 30.7752 32.5601 30.51 32.5601Z" fill="#006DF0"/>
<path d="M24.0499 38.0601C20.9499 38.0601 19.6899 46.0601 19.6899 47.3801C19.7436 48.5016 20.227 49.5594 21.0397 50.3342C21.8524 51.1089 22.9321 51.5411 24.0549 51.5411C25.1778 51.5411 26.2575 51.1089 27.0702 50.3342C27.8829 49.5594 28.3662 48.5016 28.4199 47.3801C28.4199 46.0501 27.1599 38.0601 24.0499 38.0601ZM24.0499 49.7401C23.424 49.7401 22.8238 49.4914 22.3812 49.0488C21.9386 48.6062 21.6899 48.006 21.6899 47.3801C21.6899 45.2701 23.1799 40.3801 24.0099 40.0501C24.9299 40.3901 26.4199 45.2701 26.4199 47.3801C26.4173 48.0069 26.1664 48.6071 25.7223 49.0494C25.2781 49.4917 24.6768 49.7401 24.0499 49.7401V49.7401Z" fill="#006DF0"/>
<path d="M50 24.42C49.915 24.3141 49.8094 24.2267 49.6896 24.1629C49.5697 24.0992 49.4382 24.0606 49.3029 24.0493C49.1676 24.0381 49.0315 24.0545 48.9028 24.0976C48.774 24.1406 48.6554 24.2095 48.5542 24.2999C48.4529 24.3902 48.3711 24.5003 48.3137 24.6233C48.2564 24.7463 48.2247 24.8798 48.2205 25.0154C48.2164 25.1511 48.2399 25.2862 48.2897 25.4125C48.3395 25.5388 48.4144 25.6536 48.51 25.75L51.31 28.88H51.24C50.4444 28.88 49.6813 29.1961 49.1187 29.7587C48.5561 30.3213 48.24 31.0843 48.24 31.88V33.88C48.24 34.6757 48.5561 35.4387 49.1187 36.0013C49.6813 36.5639 50.4444 36.88 51.24 36.88H51.59V57C51.6057 57.1783 51.5842 57.3579 51.5268 57.5274C51.4694 57.6969 51.3773 57.8526 51.2564 57.9846C51.1356 58.1166 50.9886 58.222 50.8248 58.2941C50.661 58.3662 50.484 58.4035 50.305 58.4035C50.126 58.4035 49.949 58.3662 49.7852 58.2941C49.6214 58.222 49.4744 58.1166 49.3536 57.9846C49.2327 57.8526 49.1406 57.6969 49.0832 57.5274C49.0258 57.3579 49.0043 57.1783 49.02 57V42.64C49.0117 41.5043 48.6171 40.4052 47.9009 39.5237C47.1848 38.6422 46.1899 38.0307 45.08 37.79V34.46C45.08 34.1948 44.9746 33.9404 44.7871 33.7529C44.5996 33.5654 44.3452 33.46 44.08 33.46H40.45V16C40.45 15.3434 40.3207 14.6932 40.0694 14.0866C39.8181 13.48 39.4498 12.9288 38.9855 12.4645C38.5212 12.0002 37.97 11.6319 37.3634 11.3806C36.7568 11.1293 36.1066 11 35.45 11H12.68C11.3539 11 10.0821 11.5268 9.14447 12.4645C8.20678 13.4021 7.68 14.6739 7.68 16V29.14H4C3.73478 29.14 3.48043 29.2454 3.29289 29.4329C3.10536 29.6204 3 29.8748 3 30.14V38.59C3 38.8552 3.10536 39.1096 3.29289 39.2971C3.48043 39.4846 3.73478 39.59 4 39.59H7.66V56.32H6C5.73478 56.32 5.48043 56.4254 5.29289 56.6129C5.10536 56.8004 5 57.0548 5 57.32V60C5 60.2652 5.10536 60.5196 5.29289 60.7071C5.48043 60.8946 5.73478 61 6 61H42.08C42.3452 61 42.5996 60.8946 42.7871 60.7071C42.9746 60.5196 43.08 60.2652 43.08 60V57.32C43.08 57.0548 42.9746 56.8004 42.7871 56.6129C42.5996 56.4254 42.3452 56.32 42.08 56.32H40.45V43.92H44.11C44.3752 43.92 44.6296 43.8146 44.8171 43.6271C45.0046 43.4396 45.11 43.1852 45.11 42.92V39.92C45.6784 40.124 46.1698 40.4987 46.5171 40.9928C46.8643 41.4868 47.0505 42.0761 47.05 42.68V57C47.0253 57.4466 47.092 57.8936 47.246 58.3136C47.3999 58.7336 47.6379 59.1178 47.9454 59.4427C48.2528 59.7676 48.6233 60.0264 49.0342 60.2032C49.4451 60.3801 49.8877 60.4713 50.335 60.4713C50.7823 60.4713 51.2249 60.3801 51.6358 60.2032C52.0467 60.0264 52.4172 59.7676 52.7246 59.4427C53.0321 59.1178 53.2701 58.7336 53.424 58.3136C53.578 57.8936 53.6447 57.4466 53.62 57V28.82C53.6221 28.5735 53.5331 28.3349 53.37 28.15L50 24.42ZM5 37.59V31.14H7.66V37.59H5ZM41.08 59H7V58.32H41.08V59ZM9.66 56.32V16C9.66 15.2044 9.97607 14.4413 10.5387 13.8787C11.1013 13.3161 11.8644 13 12.66 13H35.43C36.2256 13 36.9887 13.3161 37.5513 13.8787C38.1139 14.4413 38.43 15.2044 38.43 16V56.3L9.66 56.32ZM43.11 41.92H40.45V35.46H43.11V41.92ZM51.27 34.92C51.0048 34.92 50.7504 34.8146 50.5629 34.6271C50.3754 34.4396 50.27 34.1852 50.27 33.92V31.92C50.27 31.6548 50.3754 31.4004 50.5629 31.2129C50.7504 31.0254 51.0048 30.92 51.27 30.92H51.62V34.92H51.27Z" fill="#006DF0"/>
<path d="M45.16 3C44.8948 3 44.6405 3.10536 44.4529 3.29289C44.2654 3.48043 44.16 3.73478 44.16 4C44.16 4.26522 44.2654 4.51957 44.4529 4.70711C44.6405 4.89464 44.8948 5 45.16 5C48.838 5.02114 52.3581 6.49703 54.9513 9.10525C57.5445 11.7135 59.0001 15.242 59 18.92C59 19.1852 59.1054 19.4396 59.2929 19.6271C59.4805 19.8146 59.7348 19.92 60 19.92C60.2653 19.92 60.5196 19.8146 60.7071 19.6271C60.8947 19.4396 61 19.1852 61 18.92C61.0027 14.7108 59.3373 10.672 56.3684 7.68815C53.3995 4.70429 49.3692 3.01852 45.16 3V3Z" fill="#006DF0"/>
<path d="M45.16 7.16992C44.8948 7.16992 44.6405 7.27528 44.4529 7.46281C44.2654 7.65035 44.16 7.90471 44.16 8.16992C44.16 8.43514 44.2654 8.68949 44.4529 8.87703C44.6405 9.06456 44.8948 9.16992 45.16 9.16992C47.7355 9.18577 50.2 10.22 52.0156 12.0468C53.8311 13.8735 54.8501 16.3444 54.85 18.9199C54.85 19.1851 54.9554 19.4395 55.1429 19.627C55.3305 19.8146 55.5848 19.9199 55.85 19.9199C56.1152 19.9199 56.3696 19.8146 56.5571 19.627C56.7447 19.4395 56.85 19.1851 56.85 18.9199C56.8527 15.8132 55.6239 12.8321 53.4327 10.6297C51.2415 8.42725 48.2667 7.18315 45.16 7.16992V7.16992Z" fill="#006DF0"/>
<path d="M50.67 18.9199C50.67 19.1851 50.7754 19.4395 50.9629 19.627C51.1505 19.8145 51.4048 19.9199 51.67 19.9199C51.9352 19.9199 52.1896 19.8145 52.3771 19.627C52.5647 19.4395 52.67 19.1851 52.67 18.9199C52.6674 16.9261 51.8763 15.0144 50.4693 13.6018C49.0624 12.1892 47.1537 11.3904 45.16 11.3799C44.8948 11.3799 44.6405 11.4852 44.4529 11.6728C44.2654 11.8603 44.16 12.1147 44.16 12.3799C44.16 12.6451 44.2654 12.8995 44.4529 13.087C44.6405 13.2745 44.8948 13.3799 45.16 13.3799C46.6225 13.393 48.0209 13.9819 49.0522 15.0188C50.0836 16.0558 50.6648 17.4574 50.67 18.9199V18.9199Z" fill="#006DF0"/>
<path d="M45.13 22.26C45.7965 22.26 46.4481 22.0624 47.0023 21.6921C47.5565 21.3218 47.9884 20.7955 48.2435 20.1797C48.4986 19.5639 48.5653 18.8863 48.4353 18.2326C48.3052 17.5789 47.9843 16.9784 47.513 16.5071C47.0417 16.0358 46.4412 15.7148 45.7875 15.5848C45.1337 15.4547 44.4562 15.5215 43.8404 15.7765C43.2246 16.0316 42.6983 16.4636 42.328 17.0177C41.9577 17.5719 41.76 18.2235 41.76 18.89C41.7626 19.783 42.1186 20.6386 42.75 21.2701C43.3814 21.9015 44.237 22.2574 45.13 22.26ZM45.13 17.52C45.401 17.52 45.6658 17.6004 45.8911 17.7509C46.1164 17.9014 46.292 18.1154 46.3957 18.3657C46.4994 18.6161 46.5265 18.8915 46.4737 19.1573C46.4208 19.423 46.2903 19.6672 46.0987 19.8588C45.9071 20.0504 45.663 20.1808 45.3973 20.2337C45.1315 20.2866 44.8561 20.2594 44.6057 20.1557C44.3554 20.052 44.1414 19.8764 43.9909 19.6512C43.8404 19.4259 43.76 19.161 43.76 18.89C43.7626 18.5275 43.9078 18.1805 44.1642 17.9242C44.4205 17.6678 44.7675 17.5226 45.13 17.52V17.52Z" fill="#006DF0"/>
</svg>
